<?xml version="1.0" standalone="no"?>
<!DOCTYPE svg PUBLIC "-//W3C//DTD SVG 20010904//EN"
 "http://www.w3.org/TR/2001/REC-SVG-20010904/DTD/svg10.dtd">
<svg version="1.0" xmlns="http://www.w3.org/2000/svg"
 width="500.000000pt" height="500.000000pt" viewBox="0 0 500.000000 500.000000"
 preserveAspectRatio="xMidYMid meet">
<metadata>
Created by potrace 1.14, written by Peter Selinger 2001-2017
</metadata>
<g transform="translate(0.000000,500.000000) scale(0.100000,-0.100000)"
fill="#000000" stroke="none">
<path d="M521 4474 l-21 -15 0 -1863 c0 -1762 1 -1864 18 -1878 25 -21 1330
-21 1355 1 15 12 17 50 17 357 l0 344 26 12 c27 13 51 4 65 -23 10 -19 28 -85
105 -364 74 -272 93 -334 102 -336 4 -1 246 -2 537 -4 418 -1 535 1 551 11 16
9 36 56 74 171 29 87 57 164 62 171 6 6 24 12 39 12 41 0 47 -22 51 -194 3
-98 8 -150 17 -159 19 -19 941 -17 964 2 15 12 17 60 17 510 0 273 -4 501 -8
507 -5 9 -441 318 -586 416 -10 7 -39 28 -65 46 -74 54 -469 328 -558 389 -78
53 -83 55 -105 41 -13 -9 -36 -40 -52 -69 -59 -113 -104 -198 -155 -294 -30
-55 -67 -125 -83 -155 -40 -75 -60 -94 -92 -86 -18 4 -28 16 -36 44 -13 48
-80 319 -86 352 -3 14 -13 57 -24 96 -10 39 -21 81 -24 95 -13 67 -118 487
-127 509 -6 15 -65 63 -155 125 -80 55 -153 106 -162 113 -10 7 -98 69 -197
138 -99 68 -187 130 -196 137 -8 7 -23 17 -32 22 -17 10 -303 210 -458 319
-47 34 -163 115 -257 181 -95 66 -235 164 -312 218 -163 114 -179 121 -209
101z"/>
</g>
</svg>
